HIERARCHY
ROOT Hips
{
 OFFSET 0.000000 0.000000 0.000000
 CHANNELS 6 Xposition Yposition Zposition Yrotation Xrotation Zrotation
 JOINT Chest
 {
  OFFSET 0.000000 9.588913 -0.003946
  CHANNELS 3 Yrotation Xrotation Zrotation
  JOINT Chest2
  {
   OFFSET 0.000000 9.541882 0.008053
   CHANNELS 3 Yrotation Xrotation Zrotation
   JOINT Chest3
   {
    OFFSET 0.000000 9.501360 0.000000
    CHANNELS 3 Yrotation Xrotation Zrotation
    JOINT Chest4
    {
     OFFSET 0.000000 9.491660 0.000000
     CHANNELS 3 Yrotation Xrotation Zrotation
     JOINT Neck
     {
      OFFSET 0.000000 14.331917 0.000000
      CHANNELS 3 Yrotation Xrotation Zrotation
      JOINT Head
      {
       OFFSET 0.000000 8.884799 0.017034
       CHANNELS 3 Yrotation Xrotation Zrotation
       End Site
       {
        OFFSET 0.000000 16.896195 0.008993
       }
      }
     }
     JOINT RightCollar
     {
      OFFSET -2.923010 9.499495 0.000000
      CHANNELS 3 Yrotation Xrotation Zrotation
      JOINT RightShoulder
      {
       OFFSET -13.795216 0.000000 0.000000
       CHANNELS 3 Yrotation Xrotation Zrotation
       JOINT RightElbow
       {
        OFFSET -30.272209 0.000000 0.000000
        CHANNELS 3 Yrotation Xrotation Zrotation
        JOINT RightWrist
        {
         OFFSET -24.478199 0.000000 0.000000
         CHANNELS 3 Yrotation Xrotation Zrotation
         End Site
         {
          OFFSET -18.090752 0.000000 0.000000
         }
        }
       }
      }
     }
     JOINT LeftCollar
     {
      OFFSET 2.923010 9.499495 0.000000
      CHANNELS 3 Yrotation Xrotation Zrotation
      JOINT LeftShoulder
      {
       OFFSET 13.795216 0.000000 0.000000
       CHANNELS 3 Yrotation Xrotation Zrotation
       JOINT LeftElbow
       {
        OFFSET 30.272209 0.000000 0.000000
        CHANNELS 3 Yrotation Xrotation Zrotation
        JOINT LeftWrist
        {
         OFFSET 24.478199 0.000000 0.000000
         CHANNELS 3 Yrotation Xrotation Zrotation
         End Site
         {
          OFFSET 18.090752 0.000000 0.000000
         }
        }
       }
      }
     }
    }
   }
  }
 }
 JOINT RightHip
 {
  OFFSET -7.826875 0.019532 0.001973
  CHANNELS 3 Yrotation Xrotation Zrotation
  JOINT RightKnee
  {
   OFFSET 0.000000 -40.546152 -0.001885
   CHANNELS 3 Yrotation Xrotation Zrotation
   JOINT RightAnkle
   {
    OFFSET 0.000000 -39.417092 -0.003189
    CHANNELS 3 Yrotation Xrotation Zrotation
    JOINT RightToe
    {
     OFFSET 0.000000 -7.579396 17.243563
     CHANNELS 3 Yrotation Xrotation Zrotation
     End Site
     {
      OFFSET 0.000000 -1.500329 6.694466
     }
    }
   }
  }
 }
 JOINT LeftHip
 {
  OFFSET 7.826875 0.019532 0.001973
  CHANNELS 3 Yrotation Xrotation Zrotation
  JOINT LeftKnee
  {
   OFFSET 0.000000 -40.546152 -0.001885
   CHANNELS 3 Yrotation Xrotation Zrotation
   JOINT LeftAnkle
   {
    OFFSET 0.000000 -39.417092 -0.003189
    CHANNELS 3 Yrotation Xrotation Zrotation
    JOINT LeftToe
    {
     OFFSET 0.000000 -7.579396 17.243563
     CHANNELS 3 Yrotation Xrotation Zrotation
     End Site
     {
      OFFSET 0.000000 -1.500329 6.694466
     }
    }
   }
  }
 }
}
MOTION
Frames: 9
Frame Time: 0.008333
-54.468172 88.112646 81.189286 38.547714 -15.772579 6.203356 -4.047802 6.662249 1.756980 -2.331271 3.850004 1.083170 -2.904304 4.819094 1.330103 -2.331276 3.850005 1.083171 13.306305 27.886555 -6.582254 24.903881 18.242792 -14.077596 4.813369 1.948918 -6.166568 5.743013 0.326125 82.451189 12.592773 0.215441 2.563516 2.376345 -2.298935 -3.258750 11.961350 3.398341 1.609682 0.986056 1.595200 -90.448983 -26.421452 18.620427 -3.632057 3.690230 -3.831804 5.803756 3.224902 20.540081 -12.859309 -5.506337 11.959104 2.292941 -6.377535 -14.520683 7.533537 0.182815 -0.367437 0.597227 -18.382879 -14.150025 19.870622 -1.004480 22.105482 0.741178 -10.178255 21.131185 -13.272118 -0.012196 -1.461305 -1.883823
-53.924145 88.009213 81.224240 38.154358 -15.785212 6.297051 -4.056668 6.634900 1.763231 -2.342086 3.831878 1.068753 -2.918022 4.796377 1.312068 -2.342093 3.831880 1.068754 13.405380 27.935042 -6.588112 25.075561 18.353758 -14.093538 4.772401 1.985405 -6.276989 5.756243 0.494925 82.448902 12.709131 0.133388 2.645161 2.243422 -2.302749 -3.210503 12.103055 3.490640 1.699588 1.283364 1.778394 -90.526487 -26.345334 18.548489 -3.467575 3.565356 -3.816192 5.786616 3.369781 20.682440 -13.189341 -5.359794 12.201281 2.270564 -6.371995 -14.844756 7.757856 0.163872 -0.327786 0.583062 -18.466040 -13.447963 20.193719 -0.975048 21.319361 0.669595 -10.390386 21.639620 -13.196200 -0.040947 -1.461913 -1.938133
-53.378097 87.898687 81.254582 37.793552 -15.766299 6.378806 -4.073387 6.592433 1.767779 -2.354575 3.804785 1.057778 -2.933815 4.762477 1.298376 -2.354585 3.804787 1.057780 13.499211 27.986957 -6.593700 25.237502 18.469865 -14.107436 4.712592 2.031994 -6.386327 5.755981 0.669582 82.435971 12.850381 0.084773 2.737001 2.113778 -2.309478 -3.157141 12.258474 3.593623 1.793234 1.573597 1.950269 -90.603202 -26.272820 18.441806 -3.316367 3.439822 -3.813095 5.778227 3.496515 20.799947 -13.514290 -5.224103 12.427500 2.236781 -6.384022 -15.137631 7.993167 0.157370 -0.307801 0.573558 -18.547690 -12.798858 20.491140 -0.952638 20.586516 0.623938 -10.583318 22.123331 -13.104593 -0.058415 -1.466862 -1.971997
-52.829752 87.780884 81.281072 37.450372 -15.717587 6.443470 -4.090676 6.539264 1.776871 -2.364872 3.770027 1.050140 -2.946845 4.719012 1.288929 -2.364883 3.770029 1.050142 13.585838 28.039710 -6.598824 25.386477 18.585901 -14.119155 4.631247 2.088431 -6.494470 5.751886 0.845938 82.412577 13.016815 0.058919 2.838332 1.992615 -2.312291 -3.102585 12.426233 3.704050 1.892410 1.862927 2.109788 -90.671810 -26.217144 18.328912 -3.192467 3.308815 -3.829500 5.787731 3.612807 20.892029 -13.833570 -5.099442 12.642370 2.198856 -6.382950 -15.434349 8.237913 0.149460 -0.278938 0.562061 -18.605141 -12.187642 20.769606 -0.954116 19.882253 0.602282 -10.740720 22.604819 -13.029720 -0.064419 -1.478766 -1.965845
-52.277489 87.655760 81.303224 37.115075 -15.641033 6.494508 -4.105188 6.477920 1.788058 -2.371180 3.730163 1.045341 -2.954864 4.669170 1.283107 -2.371191 3.730164 1.045343 13.665126 28.087788 -6.604148 25.522969 18.691925 -14.130900 4.533991 2.152131 -6.605312 5.746535 1.018938 82.387604 13.210754 0.051585 2.943481 1.881271 -2.308715 -3.049979 12.606090 3.818692 1.997501 2.150954 2.258408 -90.732584 -26.194315 18.226873 -3.100234 3.163526 -3.854301 5.828335 3.724496 20.959024 -14.152123 -4.985059 12.848725 2.160820 -6.368067 -15.734896 8.489917 0.139092 -0.242416 0.549507 -18.623206 -11.608167 21.027195 -0.988429 19.198067 0.602356 -10.857722 23.087280 -12.988506 -0.057580 -1.494432 -1.914528
-51.719274 87.523481 81.321161 36.785374 -15.544935 6.533188 -4.117363 6.413665 1.799294 -2.374638 3.688769 1.043183 -2.959295 4.617426 1.280627 -2.374649 3.688769 1.043184 13.738480 28.125345 -6.612065 25.650518 18.778165 -14.148203 4.429831 2.217737 -6.721265 5.733213 1.187191 82.367140 13.435881 0.068785 3.049125 1.780286 -2.298694 -3.003106 12.799388 3.931888 2.108189 2.440569 2.403258 -90.789129 -26.221865 18.133851 -3.028594 3.004162 -3.866342 5.880692 3.836197 21.009654 -14.470442 -4.879706 13.048163 2.125136 -6.343675 -16.037674 8.745083 0.125768 -0.201407 0.539088 -18.598837 -11.051744 21.263448 -1.052187 18.531386 0.620279 -10.948124 23.573318 -12.982005 -0.039287 -1.515405 -1.825798
-51.152504 87.384415 81.335344 36.461256 -15.443115 6.562857 -4.128244 6.352788 1.807792 -2.376676 3.649496 1.042566 -2.961929 4.568339 1.280077 -2.376685 3.649496 1.042566 13.807699 28.147954 -6.623373 25.772937 18.837140 -14.173593 4.327022 2.279552 -6.840724 5.704609 1.356423 82.351613 13.697167 0.109364 3.158338 1.688899 -2.281370 -2.967609 13.003470 4.039897 2.226011 2.742188 2.553117 -90.847850 -26.314968 18.057508 -2.967415 2.836618 -3.861201 5.919801 3.945364 21.056689 -14.793751 -4.779879 13.245921 2.092843 -6.306357 -16.344111 9.001044 0.112262 -0.160077 0.532742 -18.537036 -10.505216 21.474974 -1.133925 17.881682 0.651581 -11.038486 24.065957 -12.999003 -0.011539 -1.546113 -1.716486
-50.571071 87.239411 81.343600 36.147521 -15.351647 6.613867 -4.145287 6.301896 1.783556 -2.377653 3.613928 1.042606 -2.963223 4.523885 1.280337 -2.377661 3.613928 1.042606 13.873720 28.154300 -6.637270 25.891900 18.866463 -14.206087 4.230096 2.337899 -6.963403 5.653661 1.532912 82.342819 13.999362 0.172238 3.271075 1.607854 -2.261085 -2.947966 13.215311 4.144212 2.352147 3.054278 2.713228 -90.914134 -26.481672 18.007541 -2.917658 2.669118 -3.852675 5.943175 4.025406 21.120196 -15.173412 -4.674659 13.445055 2.061032 -6.221692 -16.660698 9.285474 0.057511 -0.123709 0.511159 -18.446317 -9.961956 21.626013 -1.231531 17.245892 0.690978 -11.151290 24.571462 -13.016456 0.022441 -1.593414 -1.609706
-49.982515 87.086548 81.349193 35.837031 -15.260309 6.636170 -4.153782 6.251943 1.780756 -2.378064 3.581975 1.042623 -2.963801 4.483947 1.280552 -2.378071 3.581975 1.042623 13.938367 28.145311 -6.651816 26.010231 18.867737 -14.242402 4.138668 2.391542 -7.086430 5.578669 1.724379 82.338910 14.343727 0.257377 3.388579 1.539507 -2.241231 -2.942906 13.435182 4.248602 2.489497 3.376721 2.884086 -90.991320 -26.723860 17.982453 -2.879632 2.506779 -3.851276 5.960821 4.107776 21.167822 -15.517757 -4.563377 13.663097 2.025904 -6.184514 -16.983972 9.553758 0.046400 -0.087204 0.512202 -18.346828 -9.415587 21.782532 -1.357260 16.639009 0.727180 -11.292783 25.075988 -13.014492 0.056326 -1.656707 -1.527793
